HIERARCHY
ROOT root
{
	OFFSET 0.000000 0.000000 0.000000
	CHANNELS 6 Xposition Yposition Zposition Zrotation Yrotation Xrotation
	JOINT lhip
	{
		OFFSET 0.058581 -0.082280 -0.017664
		CHANNELS 3 Zrotation Yrotation Xrotation
		JOINT lknee
		{
			OFFSET 0.043451 -0.386469 0.008037
			CHANNELS 3 Zrotation Yrotation Xrotation
			JOINT lankle
			{
				OFFSET -0.014790 -0.426874 -0.037428
				CHANNELS 3 Zrotation Yrotation Xrotation
				JOINT ltoe
				{
					OFFSET 0.041054 -0.060286 0.122042
					CHANNELS 3 Zrotation Yrotation Xrotation
					End Site
					{
						OFFSET 0.000000 0.000000 0.000000
					}
				}
			}
		}
	}
	JOINT rhip
	{
		OFFSET -0.060310 -0.090513 -0.013543
		CHANNELS 3 Zrotation Yrotation Xrotation
		JOINT rknee
		{
			OFFSET -0.043257 -0.383688 -0.004843
			CHANNELS 3 Zrotation Yrotation Xrotation
			JOINT rankle
			{
				OFFSET 0.019056 -0.420046 -0.034562
				CHANNELS 3 Zrotation Yrotation Xrotation
				JOINT rtoe
				{
					OFFSET -0.034840 -0.062106 0.130323
					CHANNELS 3 Zrotation Yrotation Xrotation
					End Site
					{
						OFFSET 0.000000 0.000000 0.000000
					}
				}
			}
		}
	}
	JOINT lowerback
	{
		OFFSET 0.004439 0.124404 -0.038385
		CHANNELS 3 Zrotation Yrotation Xrotation
		JOINT upperback
		{
			OFFSET 0.004488 0.137956 0.026820
			CHANNELS 3 Zrotation Yrotation Xrotation
			JOINT chest
			{
				OFFSET -0.002265 0.056032 0.002855
				CHANNELS 3 Zrotation Yrotation Xrotation
				JOINT lowerneck
				{
					OFFSET -0.013390 0.211636 -0.033468
					CHANNELS 3 Zrotation Yrotation Xrotation
					JOINT upperneck
					{
						OFFSET 0.010113 0.088937 0.050410
						CHANNELS 3 Zrotation Yrotation Xrotation
						End Site
						{
							OFFSET 0.000000 0.000000 0.000000
						}
					}
				}
				JOINT lclavicle
				{
					OFFSET 0.071702 0.114000 -0.018898
					CHANNELS 3 Zrotation Yrotation Xrotation
					JOINT lshoulder
					{
						OFFSET 0.122921 0.045205 -0.019046
						CHANNELS 3 Zrotation Yrotation Xrotation
						JOINT lelbow
						{
							OFFSET 0.255332 -0.015649 -0.022946
							CHANNELS 3 Zrotation Yrotation Xrotation
							JOINT lwrist
							{
								OFFSET 0.265709 0.012698 -0.007375
								CHANNELS 3 Zrotation Yrotation Xrotation
								End Site
								{
									OFFSET 0.000000 0.000000 0.000000
								}
							}
						}
					}
				}
				JOINT rclavicle
				{
					OFFSET -0.082954 0.112472 -0.023707
					CHANNELS 3 Zrotation Yrotation Xrotation
					JOINT rshoulder
					{
						OFFSET -0.113228 0.046853 -0.008472
						CHANNELS 3 Zrotation Yrotation Xrotation
						JOINT relbow
						{
							OFFSET -0.260127 -0.014369 -0.031269
							CHANNELS 3 Zrotation Yrotation Xrotation
							JOINT rwrist
							{
								OFFSET -0.269108 0.006794 -0.006027
								CHANNELS 3 Zrotation Yrotation Xrotation
								End Site
								{
									OFFSET 0.000000 0.000000 0.000000
								}
							}
						}
					}
				}
			}
		}
	}
}
MOTION
Frames: 10
Frame Time: 0.033333
-0.071880 1.136470 0.905484 -54.377471 6.129061 97.017274 -5.209711 3.260373 -2.556631 -10.098110 10.058159 47.804873 1.309841 11.878955 -32.546879 0.000000 -0.000000 0.000000 -6.489375 13.656358 -48.722121 3.693832 -0.461161 44.842226 5.140158 2.057242 -7.824075 0.000000 -0.000000 0.000000 0.119755 -10.493194 28.340118 5.728049 -5.758967 -0.934694 1.332239 -4.561533 0.596425 -5.122778 16.932766 -11.322054 -6.199533 14.157122 3.131693 -20.111225 -14.557703 -6.780546 -40.565362 -22.242686 13.752497 144.320811 -79.116704 -120.709905 -0.680465 -18.519553 9.296967 28.186311 13.700439 -4.441988 46.442995 20.891009 24.507164 -133.042284 71.968994 -113.376608 -7.447476 11.228840 -0.928463 
-0.057530 1.139497 0.896917 -58.079238 7.922324 98.313629 -9.202271 3.766564 0.859349 -11.385918 7.320076 32.292517 2.207686 17.222088 -36.305274 0.000000 -0.000000 0.000000 -6.337317 16.151472 -53.351503 4.116479 -3.459401 46.322524 6.396021 -2.575384 -5.333994 0.000000 -0.000000 0.000000 0.139902 -12.765370 28.935247 8.340380 -7.144878 -1.369772 2.577755 -5.744142 1.261561 -3.958467 20.361142 -10.164026 -7.775135 14.647594 2.596984 -15.563279 -16.471435 -6.228585 -25.295885 -21.503409 7.676523 98.036893 -80.364969 -81.056087 2.753325 -20.804055 11.022030 28.073651 16.856934 -6.058209 46.673630 28.260755 26.918538 -105.550249 72.249656 -88.476879 -8.696099 12.033928 2.603352 
-0.048708 1.141350 0.881703 -59.354269 9.078184 98.034377 -12.185139 6.189745 4.948143 -9.145569 2.027363 24.168536 3.994267 21.172421 -40.732375 0.000000 -0.000000 0.000000 -5.837850 17.504374 -55.476858 4.945513 -2.630324 48.464331 6.943337 -5.037159 -6.207013 0.000000 -0.000000 0.000000 -0.579579 -14.472353 30.881964 10.624867 -8.826281 -1.213743 3.633541 -6.436796 1.429506 -1.832721 23.144097 -8.899082 -8.186808 13.458051 2.132198 -10.270547 -18.838482 -5.602313 -12.517412 -16.150962 3.511029 44.455132 -79.330235 -31.682163 3.474795 -22.943635 13.851970 27.342648 20.444684 -6.719182 47.531922 32.461529 27.451904 -85.499910 69.550922 -71.024024 -8.516343 11.996725 4.275699 
-0.045447 1.141049 0.863936 -60.216307 10.307855 98.325372 -13.669621 7.338790 7.808267 -7.275377 -1.838154 17.366858 5.290510 25.291901 -44.922828 0.000000 -0.000000 0.000000 -6.480217 18.816551 -57.559432 6.861540 -1.455607 50.299959 6.961979 -5.271875 -9.418029 0.000000 -0.000000 0.000000 -0.387619 -15.841886 31.082272 12.231681 -9.207213 -0.830217 4.033758 -6.361100 1.665308 -0.016111 24.893154 -8.094584 -8.849812 10.768390 2.465346 -5.220318 -18.926623 -5.844428 -9.395116 -13.126458 3.423632 13.603298 -75.372799 0.703413 -1.249323 -22.505439 17.809385 25.479027 21.285520 -7.564525 48.982930 34.160585 27.566176 -74.950298 68.152421 -60.409745 -7.812303 11.287640 3.744610 
-0.046593 1.136020 0.855121 -61.004187 10.872289 99.160054 -14.225029 7.365688 8.091374 -6.576981 -1.663304 14.830607 5.889609 25.810291 -45.459891 0.000000 -0.000000 0.000000 -7.144785 18.930870 -58.791467 7.240505 -2.438780 50.758289 6.374358 -4.331616 -12.185762 0.000000 -0.000000 0.000000 0.583093 -15.797000 30.118007 12.625582 -8.363563 -0.591895 4.162439 -5.923787 1.750157 0.743381 24.316227 -8.157279 -9.042369 8.569842 1.940182 -2.993611 -17.249434 -5.981567 -14.219153 -14.182894 5.027443 5.763500 -76.006295 12.988072 -6.081141 -21.183491 17.717303 23.723853 19.041155 -8.095680 49.729893 31.859816 26.897466 -76.970259 69.990100 -59.874092 -5.890093 10.667385 -0.400448 
-0.053078 1.125619 0.859535 -60.252208 9.991285 99.335295 -14.072401 6.799568 7.765586 -7.474671 -0.940389 17.167951 5.826345 23.259126 -42.114205 0.000000 -0.000000 0.000000 -7.432561 17.537848 -57.539648 6.606774 -2.873446 51.151622 6.413168 -3.909711 -13.248046 0.000000 -0.000000 0.000000 1.431052 -15.039155 29.139943 12.088312 -7.542973 -0.460173 3.940745 -5.320410 2.173770 0.470077 21.880323 -9.332112 -8.244982 8.172320 0.478463 -4.654992 -15.386551 -5.697762 -23.534139 -17.359209 8.262927 -2.252166 -78.074637 22.507206 -4.479676 -21.799587 13.555515 23.340155 15.464213 -7.565894 49.492572 25.308162 26.044540 -89.894271 72.339470 -71.254742 -3.638289 11.008343 -4.087118 
-0.065483 1.110359 0.872546 -56.683126 8.531759 99.013194 -11.706575 6.720898 6.436991 -9.146828 1.543558 25.694980 4.528380 16.840697 -35.140426 0.000000 -0.000000 0.000000 -7.877044 15.045408 -53.526832 5.432529 -3.544843 50.303054 5.456446 -3.576249 -14.364319 0.000000 -0.000000 0.000000 2.801669 -14.497470 27.580029 11.380777 -7.585991 0.712689 3.777916 -5.356338 1.285492 -0.723844 19.498202 -10.142426 -7.405910 9.653195 -1.165997 -9.184164 -14.379334 -4.853489 -35.948812 -17.619701 13.143105 -10.761142 -77.307057 33.218689 -3.071473 -21.959970 10.475097 23.980629 12.059405 -4.974196 48.974109 16.776265 24.059298 -99.400214 74.707198 -79.533388 -1.547828 11.304795 -6.796708 
-0.082859 1.096140 0.885927 -50.585986 6.958822 98.179712 -6.089481 7.637111 2.912670 -8.973230 7.705310 42.095066 2.401939 12.402210 -25.870217 0.000000 -0.000000 0.000000 -8.294369 12.035120 -48.050298 4.252247 -4.612693 49.174988 3.459202 -3.791546 -16.512654 0.000000 -0.000000 0.000000 3.651674 -13.300590 25.452419 10.497691 -7.606464 1.789289 3.752627 -5.622204 -0.418311 -1.558142 17.505174 -9.530167 -5.762500 12.268651 -2.518753 -14.443079 -13.616551 -2.739754 -47.901479 -15.306665 16.449655 -15.245042 -71.308302 41.173986 -4.479373 -20.228722 8.343986 25.185184 8.399308 -1.036629 50.175875 7.004508 20.832532 -95.768048 76.439813 -74.493277 1.513259 11.112050 -11.364021 
-0.099613 1.085242 0.896431 -43.498410 5.692759 97.332947 1.313747 8.809002 -3.267638 -2.478046 14.099125 64.134864 3.115127 16.366162 -23.273644 0.000000 -0.000000 0.000000 -8.813793 8.313474 -42.831988 4.307163 -5.837972 48.082102 1.235408 -4.610938 -18.797041 0.000000 -0.000000 0.000000 3.545633 -11.595953 23.187445 9.056763 -6.656961 1.630213 3.403886 -4.887357 -0.734769 -1.677083 15.892049 -10.007642 -4.362207 15.025270 -2.816495 -18.008246 -10.290535 -0.552918 -57.356022 -12.154288 15.600963 -15.905333 -62.465613 45.323006 -6.712928 -17.129295 6.570248 25.520297 4.059191 1.890898 54.335716 -1.348878 16.779782 -74.736953 76.527487 -52.356119 3.811219 10.623613 -15.462639 
-0.110794 1.073965 0.911627 -38.339208 4.213077 96.249574 8.018135 9.968380 -9.610891 0.671561 15.931977 83.304804 4.105294 15.210408 -23.844893 0.000000 -0.000000 0.000000 -9.121693 3.273654 -36.815516 4.805477 -5.777642 44.461530 0.366047 -4.033356 -19.342083 0.000000 -0.000000 0.000000 2.522347 -7.891209 21.839930 6.869482 -5.095083 1.558550 2.754559 -3.641108 -0.573430 -2.015017 14.902082 -11.550692 -3.550581 16.687639 -3.934871 -20.101833 -5.171943 0.128397 -60.979166 -7.610263 11.744206 -13.580005 -55.363421 43.254245 -3.485676 -14.661850 4.828366 25.351248 0.348808 3.335128 56.922821 -6.200096 13.241255 -48.341917 74.764761 -27.153972 3.315391 9.403731 -16.985727 
